<?xml version="1.0" encoding="UTF-8" standalone="no"?>
<svg
   xmlns:dc="http://purl.org/dc/elements/1.1/"
   xmlns:cc="http://creativecommons.org/ns#"
   xmlns:rdf="http://www.w3.org/1999/02/22-rdf-syntax-ns#"
   xmlns:svg="http://www.w3.org/2000/svg"
   xmlns="http://www.w3.org/2000/svg"
   xmlns:xlink="http://www.w3.org/1999/xlink"
   xmlns:sodipodi="http://sodipodi.sourceforge.net/DTD/sodipodi-0.dtd"
   xmlns:inkscape="http://www.inkscape.org/namespaces/inkscape"
   width="640"
   height="480"
   viewBox="0 0 640 480"
   id="svg2"
   version="1.1"
   inkscape:version="0.48.3.1 r9886"
   sodipodi:docname="c3Bis.svg">
  <metadata
     id="metadata352">
    <rdf:RDF>
      <cc:Work
         rdf:about="">
        <dc:format>image/svg+xml</dc:format>
        <dc:type
           rdf:resource="http://purl.org/dc/dcmitype/StillImage" />
      </cc:Work>
    </rdf:RDF>
  </metadata>
  <sodipodi:namedview
     pagecolor="#ffffff"
     bordercolor="#666666"
     borderopacity="1"
     objecttolerance="10"
     gridtolerance="10"
     guidetolerance="10"
     inkscape:pageopacity="0"
     inkscape:pageshadow="2"
     inkscape:window-width="1855"
     inkscape:window-height="1056"
     id="namedview350"
     showgrid="false"
     inkscape:zoom="1.2727922"
     inkscape:cx="528.78579"
     inkscape:cy="131.57499"
     inkscape:window-x="65"
     inkscape:window-y="24"
     inkscape:window-maximized="1"
     inkscape:current-layer="svg2" />
  <desc
     id="desc4">Produced by GNUPLOT 4.4 patchlevel 3 </desc>
  <defs
     id="defs6">
    <circle
       id="gpDot"
       r="0.5"
       stroke-width="0.5" />
    <path
       id="gpPt0"
       stroke-width="0.222"
       stroke="currentColor"
       d="M-1,0 h2 M0,-1 v2" />
    <path
       id="gpPt1"
       stroke-width="0.222"
       stroke="currentColor"
       d="M-1,-1 L1,1 M1,-1 L-1,1" />
    <path
       id="gpPt2"
       stroke-width="0.222"
       stroke="currentColor"
       d="M-1,0 L1,0 M0,-1 L0,1 M-1,-1 L1,1 M-1,1 L1,-1" />
    <rect
       id="gpPt3"
       stroke-width="0.222"
       stroke="currentColor"
       x="-1"
       y="-1"
       width="2"
       height="2" />
    <rect
       id="gpPt4"
       stroke-width="0.222"
       stroke="currentColor"
       fill="currentColor"
       x="-1"
       y="-1"
       width="2"
       height="2" />
    <circle
       id="gpPt5"
       stroke-width="0.222"
       stroke="currentColor"
       cx="0"
       cy="0"
       r="1" />
    <use
       xlink:href="#gpPt5"
       id="gpPt6"
       fill="currentColor"
       stroke="none" />
    <path
       id="gpPt7"
       stroke-width="0.222"
       stroke="currentColor"
       d="M0,-1.33 L-1.33,0.67 L1.33,0.67 z" />
    <use
       xlink:href="#gpPt7"
       id="gpPt8"
       fill="currentColor"
       stroke="none" />
    <use
       xlink:href="#gpPt7"
       id="gpPt9"
       stroke="currentColor"
       transform="rotate(180)" />
    <use
       xlink:href="#gpPt9"
       id="gpPt10"
       fill="currentColor"
       stroke="none" />
    <use
       xlink:href="#gpPt3"
       id="gpPt11"
       stroke="currentColor"
       transform="rotate(45)" />
    <use
       xlink:href="#gpPt11"
       id="gpPt12"
       fill="currentColor"
       stroke="none" />
  </defs>
  <g
     style="fill:none; color:white; stroke:currentColor; stroke-width:1.00; stroke-linecap:butt; stroke-linejoin:miter"
     id="g22" />
  <g
     style="fill:none; color:black; stroke:currentColor; stroke-width:1.00; stroke-linecap:butt; stroke-linejoin:miter"
     id="g24">
    <path
       d="M71.9,422.4 L80.9,422.4 M615.0,422.4 L606.0,422.4 "
       id="path26" />
    <g
       transform="translate(63.6,426.9)"
       style="stroke:none; fill:black; font-family:Arial; font-size:14.00pt; text-anchor:end"
       id="g28">
      <text
         id="text30"> 0</text>
    </g>
    <path
       d="M71.9,341.3 L80.9,341.3 M615.0,341.3 L606.0,341.3 "
       id="path32" />
    <g
       transform="translate(63.6,345.8)"
       style="stroke:none; fill:black; font-family:Arial; font-size:14.00pt; text-anchor:end"
       id="g34">
      <text
         id="text36"> 20</text>
    </g>
    <path
       d="M71.9,260.1 L80.9,260.1 M615.0,260.1 L606.0,260.1 "
       id="path38" />
    <g
       transform="translate(63.6,264.6)"
       style="stroke:none; fill:black; font-family:Arial; font-size:14.00pt; text-anchor:end"
       id="g40">
      <text
         id="text42"> 40</text>
    </g>
    <path
       d="M71.9,179.0 L80.9,179.0 M615.0,179.0 L606.0,179.0 "
       id="path44" />
    <g
       transform="translate(63.6,183.5)"
       style="stroke:none; fill:black; font-family:Arial; font-size:14.00pt; text-anchor:end"
       id="g46">
      <text
         id="text48"> 60</text>
    </g>
    <path
       d="M71.9,97.8 L80.9,97.8 M615.0,97.8 L606.0,97.8 "
       id="path50" />
    <g
       transform="translate(63.6,102.3)"
       style="stroke:none; fill:black; font-family:Arial; font-size:14.00pt; text-anchor:end"
       id="g52">
      <text
         id="text54"> 80</text>
    </g>
    <path
       d="M71.9,16.7 L80.9,16.7 M615.0,16.7 L606.0,16.7 "
       id="path56" />
    <g
       transform="translate(63.6,21.2)"
       style="stroke:none; fill:black; font-family:Arial; font-size:14.00pt; text-anchor:end"
       id="g58">
      <text
         id="text60"> 100</text>
    </g>
    <path
       d="M71.9,422.4 L71.9,413.4 M71.9,16.7 L71.9,25.7 "
       id="path62" />
    <g
       transform="translate(71.9,444.9)"
       style="stroke:none; fill:black; font-family:Arial; font-size:14.00pt; text-anchor:middle"
       id="g64">
      <text
         id="text66"> 1e-07</text>
    </g>
    <path
       d="M99.1,422.4 L99.1,417.9 M99.1,16.7 L99.1,21.2 M135.2,422.4 L135.2,417.9 M135.2,16.7 L135.2,21.2    M153.6,422.4 L153.6,417.9 M153.6,16.7 L153.6,21.2 M162.4,422.4 L162.4,413.4 M162.4,16.7 L162.4,25.7    "
       id="path68" />
    <g
       transform="translate(162.4,444.9)"
       style="stroke:none; fill:black; font-family:Arial; font-size:14.00pt; text-anchor:middle"
       id="g70">
      <text
         id="text72"> 1e-06</text>
    </g>
    <path
       d="M189.7,422.4 L189.7,417.9 M189.7,16.7 L189.7,21.2 M225.7,422.4 L225.7,417.9 M225.7,16.7 L225.7,21.2    M244.2,422.4 L244.2,417.9 M244.2,16.7 L244.2,21.2 M252.9,422.4 L252.9,413.4 M252.9,16.7 L252.9,25.7    "
       id="path74" />
    <g
       transform="translate(252.9,444.9)"
       style="stroke:none; fill:black; font-family:Arial; font-size:14.00pt; text-anchor:middle"
       id="g76">
      <text
         id="text78"> 1e-05</text>
    </g>
    <path
       d="M280.2,422.4 L280.2,417.9 M280.2,16.7 L280.2,21.2 M316.2,422.4 L316.2,417.9 M316.2,16.7 L316.2,21.2    M334.7,422.4 L334.7,417.9 M334.7,16.7 L334.7,21.2 M343.5,422.4 L343.5,413.4 M343.5,16.7 L343.5,25.7    "
       id="path80" />
    <g
       transform="translate(343.5,444.9)"
       style="stroke:none; fill:black; font-family:Arial; font-size:14.00pt; text-anchor:middle"
       id="g82">
      <text
         id="text84"> 0.0001</text>
    </g>
    <path
       d="M370.7,422.4 L370.7,417.9 M370.7,16.7 L370.7,21.2 M406.7,422.4 L406.7,417.9 M406.7,16.7 L406.7,21.2    M425.2,422.4 L425.2,417.9 M425.2,16.7 L425.2,21.2 M434.0,422.4 L434.0,413.4 M434.0,16.7 L434.0,25.7    "
       id="path86" />
    <g
       transform="translate(434.0,444.9)"
       style="stroke:none; fill:black; font-family:Arial; font-size:14.00pt; text-anchor:middle"
       id="g88">
      <text
         id="text90"> 0.001</text>
    </g>
    <path
       d="M461.2,422.4 L461.2,417.9 M461.2,16.7 L461.2,21.2 M497.2,422.4 L497.2,417.9 M497.2,16.7 L497.2,21.2    M515.7,422.4 L515.7,417.9 M515.7,16.7 L515.7,21.2 M524.5,422.4 L524.5,413.4 M524.5,16.7 L524.5,25.7    "
       id="path92" />
    <g
       transform="translate(524.5,444.9)"
       style="stroke:none; fill:black; font-family:Arial; font-size:14.00pt; text-anchor:middle"
       id="g94">
      <text
         id="text96"> 0.01</text>
    </g>
    <path
       d="M551.7,422.4 L551.7,417.9 M551.7,16.7 L551.7,21.2 M587.8,422.4 L587.8,417.9 M587.8,16.7 L587.8,21.2    M606.2,422.4 L606.2,417.9 M606.2,16.7 L606.2,21.2 M615.0,422.4 L615.0,413.4 M615.0,16.7 L615.0,25.7    "
       id="path98" />
    <g
       transform="translate(615.0,444.9)"
       style="stroke:none; fill:black; font-family:Arial; font-size:14.00pt; text-anchor:middle"
       id="g100">
      <text
         id="text102"> 0.1</text>
    </g>
    <path
       d="M71.9,16.7 L71.9,422.4 L615.0,422.4 L615.0,16.7 L71.9,16.7 Z "
       id="path104" />
    <g
       transform="translate(17.6,219.6) rotate(270)"
       style="stroke:none; fill:black; font-family:Arial; font-size:18.00pt; text-anchor:middle"
       id="g106">
      <text
         id="text108">Speed-up</text>
    </g>
    <g
       transform="translate(343.4,471.9)"
       style="stroke:none; fill:black; font-family:Arial; font-size:18.00pt; text-anchor:middle"
       id="g110">
      <text
         id="text112">Error</text>
    </g>
  </g>
  <a
     xlink:title="Plot #1"
     id="a114">
    <g
       style="fill:none; color:white; stroke:currentColor; stroke-width:3.00; stroke-linecap:butt; stroke-linejoin:miter"
       id="g116" />
    <g
       style="fill:none; color:red; stroke:currentColor; stroke-width:3.00; stroke-linecap:butt; stroke-linejoin:miter"
       id="g118">
      <g
         transform="translate(284.7,58.3)"
         style="stroke:none; fill:black; font-family:Arial; font-size:18.00pt; text-anchor:end"
         id="g120">
        <text
           id="text122"
           x="-140"
           y="0">CPU</text>
      </g>
      <path
         d="m 153,53.8 42.2,0 m 376,352.2 -100.9,-0.5 -106.9,0.5 -73.1,-0.3 -106,3.3 -7.6,-0.1"
         id="path124"
         inkscape:connector-curvature="0"
         style="stroke:#0000ff"
         sodipodi:nodetypes="cccccccc" />
      <use
         xlink:href="#gpPt6"
         transform="translate(571.2,406.0) scale(4.50)"
         color="white"
         id="use126" />
      <use
         xlink:href="#gpPt5"
         transform="translate(571.2,406.0) scale(9.00)"
         color="rgb(  0,   0, 255)"
         id="use128" />
      <use
         xlink:href="#gpPt6"
         transform="translate(470.3,405.5) scale(4.50)"
         color="white"
         id="use130" />
      <use
         xlink:href="#gpPt5"
         transform="translate(470.3,405.5) scale(9.00)"
         color="rgb(  0,   0, 255)"
         id="use132" />
      <use
         xlink:href="#gpPt6"
         transform="translate(363.4,406.0) scale(4.50)"
         color="white"
         id="use134" />
      <use
         xlink:href="#gpPt5"
         transform="translate(363.4,406.0) scale(9.00)"
         color="rgb(  0,   0, 255)"
         id="use136" />
      <use
         xlink:href="#gpPt6"
         transform="translate(290.3,405.7) scale(4.50)"
         color="white"
         id="use138" />
      <use
         xlink:href="#gpPt5"
         transform="translate(290.3,405.7) scale(9.00)"
         color="rgb(  0,   0, 255)"
         id="use140" />
      <use
         xlink:href="#gpPt6"
         transform="translate(184.3,409.0) scale(4.50)"
         color="white"
         id="use142" />
      <use
         xlink:href="#gpPt5"
         transform="translate(184.3,409.0) scale(9.00)"
         color="rgb(  0,   0, 255)"
         id="use144" />
      <use
         xlink:href="#gpPt6"
         transform="translate(176.7,408.9) scale(4.50)"
         color="white"
         id="use146" />
      <use
         xlink:href="#gpPt5"
         transform="translate(176.7,408.9) scale(9.00)"
         color="rgb(  0,   0, 255)"
         id="use148" />
      <use
         xlink:href="#gpPt6"
         transform="matrix(4.5,0,0,4.5,174.1,53.8)"
         id="use150"
         style="color:#ffffff"
         x="0"
         y="0"
         width="640"
         height="480" />
      <use
         xlink:href="#gpPt5"
         transform="matrix(9,0,0,9,174.1,53.8)"
         id="use152"
         style="color:#0000ff"
         x="0"
         y="0"
         width="640"
         height="480" />
    </g>
  </a>
  <a
     xlink:title="Plot #2"
     id="a154">
    <g
       style="fill:none; color:green; stroke:currentColor; stroke-width:3.00; stroke-linecap:butt; stroke-linejoin:miter"
       id="g156">
      <g
         transform="translate(284.7,92.0)"
         style="stroke:none; fill:black; font-family:Arial; font-size:18.00pt; text-anchor:end"
         id="g158">
        <text
           id="text160"
           x="-140"
           y="0">GPU0</text>
      </g>
      <path
         d="m 153,87.5 42.2,0 m 376,290.2 -100.9,0 -108.2,0.1 -69.3,6.1 -61.4,7.3 -61.8,8.8"
         id="path162"
         inkscape:connector-curvature="0"
         style="stroke:#ff0000"
         sodipodi:nodetypes="cccccccc" />
      <use
         xlink:href="#gpPt6"
         transform="translate(571.2,377.7) scale(4.50)"
         color="white"
         id="use164" />
      <use
         xlink:href="#gpPt3"
         transform="translate(571.2,377.7) scale(9.00)"
         color="rgb(255,   0,   0)"
         id="use166" />
      <use
         xlink:href="#gpPt6"
         transform="translate(470.3,377.7) scale(4.50)"
         color="white"
         id="use168" />
      <use
         xlink:href="#gpPt3"
         transform="translate(470.3,377.7) scale(9.00)"
         color="rgb(255,   0,   0)"
         id="use170" />
      <use
         xlink:href="#gpPt6"
         transform="translate(362.1,377.8) scale(4.50)"
         color="white"
         id="use172" />
      <use
         xlink:href="#gpPt3"
         transform="translate(362.1,377.8) scale(9.00)"
         color="rgb(255,   0,   0)"
         id="use174" />
      <use
         xlink:href="#gpPt6"
         transform="translate(292.8,383.9) scale(4.50)"
         color="white"
         id="use176" />
      <use
         xlink:href="#gpPt3"
         transform="translate(292.8,383.9) scale(9.00)"
         color="rgb(255,   0,   0)"
         id="use178" />
      <use
         xlink:href="#gpPt6"
         transform="translate(231.4,391.2) scale(4.50)"
         color="white"
         id="use180" />
      <use
         xlink:href="#gpPt3"
         transform="translate(231.4,391.2) scale(9.00)"
         color="rgb(255,   0,   0)"
         id="use182" />
      <use
         xlink:href="#gpPt6"
         transform="translate(169.6,400.0) scale(4.50)"
         color="white"
         id="use184" />
      <use
         xlink:href="#gpPt3"
         transform="translate(169.6,400.0) scale(9.00)"
         color="rgb(255,   0,   0)"
         id="use186" />
      <use
         xlink:href="#gpPt6"
         transform="matrix(4.5,0,0,4.5,174.1,87.5)"
         id="use188"
         style="color:#ffffff"
         x="0"
         y="0"
         width="640"
         height="480" />
      <use
         xlink:href="#gpPt3"
         transform="matrix(9,0,0,9,174.1,87.5)"
         id="use190"
         style="color:#ff0000"
         x="0"
         y="0"
         width="640"
         height="480" />
    </g>
  </a>
  <a
     xlink:title="Plot #3"
     id="a192">
    <g
       style="fill:none; color:blue; stroke:currentColor; stroke-width:3.00; stroke-linecap:butt; stroke-linejoin:miter"
       id="g194">
      <g
         transform="translate(284.7,125.7)"
         style="stroke:none; fill:black; font-family:Arial; font-size:18.00pt; text-anchor:end"
         id="g196">
        <text
           id="text198"
           x="-140"
           y="0">GPU1</text>
      </g>
      <path
         d="m 153,121.2 42.2,0 m 376,147.4 -100.9,-189.8 -106.9,0.8 -73.1,143 -106,23.3 -7.6,12"
         id="path200"
         inkscape:connector-curvature="0"
         style="stroke:#000000"
         sodipodi:nodetypes="cccccccc" />
      <use
         xlink:href="#gpPt6"
         transform="translate(571.2,268.6) scale(4.50)"
         color="white"
         id="use202" />
      <use
         xlink:href="#gpPt1"
         transform="translate(571.2,268.6) scale(9.00)"
         color="rgb(  0,   0,   0)"
         id="use204" />
      <use
         xlink:href="#gpPt6"
         transform="translate(470.3,78.8) scale(4.50)"
         color="white"
         id="use206" />
      <use
         xlink:href="#gpPt1"
         transform="translate(470.3,78.8) scale(9.00)"
         color="rgb(  0,   0,   0)"
         id="use208" />
      <use
         xlink:href="#gpPt6"
         transform="translate(363.4,79.6) scale(4.50)"
         color="white"
         id="use210" />
      <use
         xlink:href="#gpPt1"
         transform="translate(363.4,79.6) scale(9.00)"
         color="rgb(  0,   0,   0)"
         id="use212" />
      <use
         xlink:href="#gpPt6"
         transform="translate(290.3,222.6) scale(4.50)"
         color="white"
         id="use214" />
      <use
         xlink:href="#gpPt1"
         transform="translate(290.3,222.6) scale(9.00)"
         color="rgb(  0,   0,   0)"
         id="use216" />
      <use
         xlink:href="#gpPt6"
         transform="translate(184.3,245.9) scale(4.50)"
         color="white"
         id="use218" />
      <use
         xlink:href="#gpPt1"
         transform="translate(184.3,245.9) scale(9.00)"
         color="rgb(  0,   0,   0)"
         id="use220" />
      <use
         xlink:href="#gpPt6"
         transform="translate(176.7,257.9) scale(4.50)"
         color="white"
         id="use222" />
      <use
         xlink:href="#gpPt1"
         transform="translate(176.7,257.9) scale(9.00)"
         color="rgb(  0,   0,   0)"
         id="use224" />
      <use
         xlink:href="#gpPt6"
         transform="matrix(4.5,0,0,4.5,174.1,121.2)"
         id="use226"
         style="color:#ffffff"
         x="0"
         y="0"
         width="640"
         height="480" />
      <use
         xlink:href="#gpPt1"
         transform="matrix(9,0,0,9,174.1,121.2)"
         id="use228"
         style="color:#000000"
         x="0"
         y="0"
         width="640"
         height="480" />
    </g>
  </a>
  <a
     xlink:title="Plot #4"
     id="a230">
    <g
       style="fill:none; color:cyan; stroke:currentColor; stroke-width:3.00; stroke-linecap:butt; stroke-linejoin:miter"
       id="g232">
      <g
         transform="translate(284.7,159.4)"
         style="stroke:none; fill:black; font-family:Arial; font-size:18.00pt; text-anchor:end"
         id="g234">
        <text
           id="text236"
           y="100"
           x="180">GPU2</text>
      </g>
      <path
         d="m 473,254.9 42.2,0 M 571.2,91.3 470.3,91.5 363,92 l -71.1,20.8 -93.5,50.9 -92.3,62.4"
         id="path238"
         inkscape:connector-curvature="0"
         style="stroke:#00ff00"
         sodipodi:nodetypes="cccccccc" />
      <use
         xlink:href="#gpPt6"
         transform="translate(571.2,91.3) scale(4.50)"
         color="white"
         id="use240" />
      <use
         xlink:href="#gpPt7"
         transform="translate(571.2,91.3) scale(9.00)"
         color="rgb(  0, 255,   0)"
         id="use242" />
      <use
         xlink:href="#gpPt6"
         transform="translate(470.3,91.5) scale(4.50)"
         color="white"
         id="use244" />
      <use
         xlink:href="#gpPt7"
         transform="translate(470.3,91.5) scale(9.00)"
         color="rgb(  0, 255,   0)"
         id="use246" />
      <use
         xlink:href="#gpPt6"
         transform="translate(363.0,92.0) scale(4.50)"
         color="white"
         id="use248" />
      <use
         xlink:href="#gpPt7"
         transform="translate(363.0,92.0) scale(9.00)"
         color="rgb(  0, 255,   0)"
         id="use250" />
      <use
         xlink:href="#gpPt6"
         transform="translate(291.9,112.8) scale(4.50)"
         color="white"
         id="use252" />
      <use
         xlink:href="#gpPt7"
         transform="translate(291.9,112.8) scale(9.00)"
         color="rgb(  0, 255,   0)"
         id="use254" />
      <use
         xlink:href="#gpPt6"
         transform="translate(198.4,163.7) scale(4.50)"
         color="white"
         id="use256" />
      <use
         xlink:href="#gpPt7"
         transform="translate(198.4,163.7) scale(9.00)"
         color="rgb(  0, 255,   0)"
         id="use258" />
      <use
         xlink:href="#gpPt6"
         transform="translate(106.1,226.1) scale(4.50)"
         color="white"
         id="use260" />
      <use
         xlink:href="#gpPt7"
         transform="translate(106.1,226.1) scale(9.00)"
         color="rgb(  0, 255,   0)"
         id="use262" />
      <use
         xlink:href="#gpPt6"
         transform="matrix(4.5,0,0,4.5,494.1,254.9)"
         id="use264"
         style="color:#ffffff"
         x="0"
         y="0"
         width="640"
         height="480" />
      <use
         xlink:href="#gpPt7"
         transform="matrix(9,0,0,9,494.1,254.9)"
         id="use266"
         style="color:#00ff00"
         x="0"
         y="0"
         width="640"
         height="480" />
    </g>
  </a>
  <a
     xlink:title="Plot #5"
     id="a268">
    <g
       style="fill:none; color:#157545; stroke:currentColor; stroke-width:3.00; stroke-linecap:butt; stroke-linejoin:miter"
       id="g270">
      <g
         transform="translate(284.7,193.1)"
         style="stroke:none; fill:black; font-family:Arial; font-size:18.00pt; text-anchor:end"
         id="g272">
        <text
           id="text274"
           y="100"
           x="180">GPU2 (ECC mode OFF)</text>
      </g>
      <path
         d="m 473,288.6 42.2,0 M 571.2,84.8 470.3,88 363,88.9 l -71.1,21 -93.5,50.2 -92.3,25.3"
         id="path276"
         inkscape:connector-curvature="0"
         style="stroke:#ff00ff"
         sodipodi:nodetypes="cccccccc" />
      <use
         xlink:href="#gpPt6"
         transform="translate(571.2,84.8) scale(4.50)"
         color="white"
         id="use278" />
      <use
         xlink:href="#gpPt9"
         transform="translate(571.2,84.8) scale(9.00)"
         color="rgb(255,   0, 255)"
         id="use280" />
      <use
         xlink:href="#gpPt6"
         transform="translate(470.3,88.0) scale(4.50)"
         color="white"
         id="use282" />
      <use
         xlink:href="#gpPt9"
         transform="translate(470.3,88.0) scale(9.00)"
         color="rgb(255,   0, 255)"
         id="use284" />
      <use
         xlink:href="#gpPt6"
         transform="translate(363.0,88.9) scale(4.50)"
         color="white"
         id="use286" />
      <use
         xlink:href="#gpPt9"
         transform="translate(363.0,88.9) scale(9.00)"
         color="rgb(255,   0, 255)"
         id="use288" />
      <use
         xlink:href="#gpPt6"
         transform="translate(291.9,109.9) scale(4.50)"
         color="white"
         id="use290" />
      <use
         xlink:href="#gpPt9"
         transform="translate(291.9,109.9) scale(9.00)"
         color="rgb(255,   0, 255)"
         id="use292" />
      <use
         xlink:href="#gpPt6"
         transform="translate(198.4,160.1) scale(4.50)"
         color="white"
         id="use294" />
      <use
         xlink:href="#gpPt9"
         transform="translate(198.4,160.1) scale(9.00)"
         color="rgb(255,   0, 255)"
         id="use296" />
      <use
         xlink:href="#gpPt6"
         transform="translate(106.1,185.4) scale(4.50)"
         color="white"
         id="use298" />
      <use
         xlink:href="#gpPt9"
         transform="translate(106.1,185.4) scale(9.00)"
         color="rgb(255,   0, 255)"
         id="use300" />
      <use
         xlink:href="#gpPt6"
         transform="matrix(4.5,0,0,4.5,494.1,288.6)"
         id="use302"
         style="color:#ffffff"
         x="0"
         y="0"
         width="640"
         height="480" />
      <use
         xlink:href="#gpPt9"
         transform="matrix(9,0,0,9,494.1,288.6)"
         id="use304"
         style="color:#ff00ff"
         x="0"
         y="0"
         width="640"
         height="480" />
    </g>
  </a>
  <g
     style="fill:none; color:white; stroke:rgb(  0, 255, 255); stroke-width:1.00; stroke-linecap:butt; stroke-linejoin:miter"
     id="g344" />
  <g
     style="fill:none; color:black; stroke:currentColor; stroke-width:1.00; stroke-linecap:butt; stroke-linejoin:miter"
     id="g346">
    <path
       d="M71.9,16.7 L71.9,422.4 L615.0,422.4 L615.0,16.7 L71.9,16.7 Z "
       id="path348" />
  </g>
</svg>
