<?xml version="1.0" encoding="UTF-8" standalone="no"?>
<svg
   xmlns:dc="http://purl.org/dc/elements/1.1/"
   xmlns:cc="http://creativecommons.org/ns#"
   xmlns:rdf="http://www.w3.org/1999/02/22-rdf-syntax-ns#"
   xmlns:svg="http://www.w3.org/2000/svg"
   xmlns="http://www.w3.org/2000/svg"
   xmlns:xlink="http://www.w3.org/1999/xlink"
   xmlns:sodipodi="http://sodipodi.sourceforge.net/DTD/sodipodi-0.dtd"
   xmlns:inkscape="http://www.inkscape.org/namespaces/inkscape"
   width="640"
   height="480"
   viewBox="0 0 640 480"
   id="svg2"
   version="1.1"
   inkscape:version="0.48.3.1 r9886"
   sodipodi:docname="c4Bis.svg">
  <metadata
     id="metadata526">
    <rdf:RDF>
      <cc:Work
         rdf:about="">
        <dc:format>image/svg+xml</dc:format>
        <dc:type
           rdf:resource="http://purl.org/dc/dcmitype/StillImage" />
      </cc:Work>
    </rdf:RDF>
  </metadata>
  <sodipodi:namedview
     pagecolor="#ffffff"
     bordercolor="#666666"
     borderopacity="1"
     objecttolerance="10"
     gridtolerance="10"
     guidetolerance="10"
     inkscape:pageopacity="0"
     inkscape:pageshadow="2"
     inkscape:window-width="1855"
     inkscape:window-height="1056"
     id="namedview524"
     showgrid="false"
     inkscape:zoom="1.2727922"
     inkscape:cx="614.59917"
     inkscape:cy="314.26941"
     inkscape:window-x="65"
     inkscape:window-y="24"
     inkscape:window-maximized="1"
     inkscape:current-layer="svg2" />
  <desc
     id="desc4">Produced by GNUPLOT 4.4 patchlevel 3 </desc>
  <defs
     id="defs6">
    <circle
       id="gpDot"
       r="0.5"
       stroke-width="0.5" />
    <path
       id="gpPt0"
       stroke-width="0.222"
       stroke="currentColor"
       d="M-1,0 h2 M0,-1 v2" />
    <path
       id="gpPt1"
       stroke-width="0.222"
       stroke="currentColor"
       d="M-1,-1 L1,1 M1,-1 L-1,1" />
    <path
       id="gpPt2"
       stroke-width="0.222"
       stroke="currentColor"
       d="M-1,0 L1,0 M0,-1 L0,1 M-1,-1 L1,1 M-1,1 L1,-1" />
    <rect
       id="gpPt3"
       stroke-width="0.222"
       stroke="currentColor"
       x="-1"
       y="-1"
       width="2"
       height="2" />
    <rect
       id="gpPt4"
       stroke-width="0.222"
       stroke="currentColor"
       fill="currentColor"
       x="-1"
       y="-1"
       width="2"
       height="2" />
    <circle
       id="gpPt5"
       stroke-width="0.222"
       stroke="currentColor"
       cx="0"
       cy="0"
       r="1" />
    <use
       xlink:href="#gpPt5"
       id="gpPt6"
       fill="currentColor"
       stroke="none" />
    <path
       id="gpPt7"
       stroke-width="0.222"
       stroke="currentColor"
       d="M0,-1.33 L-1.33,0.67 L1.33,0.67 z" />
    <use
       xlink:href="#gpPt7"
       id="gpPt8"
       fill="currentColor"
       stroke="none" />
    <use
       xlink:href="#gpPt7"
       id="gpPt9"
       stroke="currentColor"
       transform="rotate(180)" />
    <use
       xlink:href="#gpPt9"
       id="gpPt10"
       fill="currentColor"
       stroke="none" />
    <use
       xlink:href="#gpPt3"
       id="gpPt11"
       stroke="currentColor"
       transform="rotate(45)" />
    <use
       xlink:href="#gpPt11"
       id="gpPt12"
       fill="currentColor"
       stroke="none" />
  </defs>
  <g
     style="fill:none; color:white; stroke:currentColor; stroke-width:1.00; stroke-linecap:butt; stroke-linejoin:miter"
     id="g22" />
  <g
     style="fill:none; color:black; stroke:currentColor; stroke-width:1.00; stroke-linecap:butt; stroke-linejoin:miter"
     id="g24">
    <path
       d="M63.6,422.4 L72.6,422.4 M615.0,422.4 L606.0,422.4 "
       id="path26" />
    <g
       transform="translate(55.3,426.9)"
       style="stroke:none; fill:black; font-family:Arial; font-size:14.00pt; text-anchor:end"
       id="g28">
      <text
         id="text30"> 0</text>
    </g>
    <path
       d="M63.6,364.4 L72.6,364.4 M615.0,364.4 L606.0,364.4 "
       id="path32" />
    <g
       transform="translate(55.3,368.9)"
       style="stroke:none; fill:black; font-family:Arial; font-size:14.00pt; text-anchor:end"
       id="g34">
      <text
         id="text36"> 5</text>
    </g>
    <path
       d="M63.6,306.5 L72.6,306.5 M615.0,306.5 L606.0,306.5 "
       id="path38" />
    <g
       transform="translate(55.3,311.0)"
       style="stroke:none; fill:black; font-family:Arial; font-size:14.00pt; text-anchor:end"
       id="g40">
      <text
         id="text42"> 10</text>
    </g>
    <path
       d="M63.6,248.5 L72.6,248.5 M615.0,248.5 L606.0,248.5 "
       id="path44" />
    <g
       transform="translate(55.3,253.0)"
       style="stroke:none; fill:black; font-family:Arial; font-size:14.00pt; text-anchor:end"
       id="g46">
      <text
         id="text48"> 15</text>
    </g>
    <path
       d="M63.6,190.6 L72.6,190.6 M615.0,190.6 L606.0,190.6 "
       id="path50" />
    <g
       transform="translate(55.3,195.1)"
       style="stroke:none; fill:black; font-family:Arial; font-size:14.00pt; text-anchor:end"
       id="g52">
      <text
         id="text54"> 20</text>
    </g>
    <path
       d="M63.6,132.6 L72.6,132.6 M615.0,132.6 L606.0,132.6 "
       id="path56" />
    <g
       transform="translate(55.3,137.1)"
       style="stroke:none; fill:black; font-family:Arial; font-size:14.00pt; text-anchor:end"
       id="g58">
      <text
         id="text60"> 25</text>
    </g>
    <path
       d="M63.6,74.7 L72.6,74.7 M615.0,74.7 L606.0,74.7 "
       id="path62" />
    <g
       transform="translate(55.3,79.2)"
       style="stroke:none; fill:black; font-family:Arial; font-size:14.00pt; text-anchor:end"
       id="g64">
      <text
         id="text66"> 30</text>
    </g>
    <path
       d="M63.6,16.7 L72.6,16.7 M615.0,16.7 L606.0,16.7 "
       id="path68" />
    <g
       transform="translate(55.3,21.2)"
       style="stroke:none; fill:black; font-family:Arial; font-size:14.00pt; text-anchor:end"
       id="g70">
      <text
         id="text72"> 35</text>
    </g>
    <path
       d="M63.6,422.4 L63.6,417.9 M63.6,16.7 L63.6,21.2 M103.0,422.4 L103.0,413.4 M103.0,16.7 L103.0,25.7    "
       id="path74" />
    <g
       transform="translate(103.0,444.9)"
       style="stroke:none; fill:black; font-family:Arial; font-size:14.00pt; text-anchor:middle"
       id="g76">
      <text
         id="text78"> 1e-14</text>
    </g>
    <path
       d="M142.4,422.4 L142.4,417.9 M142.4,16.7 L142.4,21.2 M181.8,422.4 L181.8,413.4 M181.8,16.7 L181.8,25.7    "
       id="path80" />
    <g
       transform="translate(181.8,444.9)"
       style="stroke:none; fill:black; font-family:Arial; font-size:14.00pt; text-anchor:middle"
       id="g82">
      <text
         id="text84"> 1e-12</text>
    </g>
    <path
       d="M221.1,422.4 L221.1,417.9 M221.1,16.7 L221.1,21.2 M260.5,422.4 L260.5,413.4 M260.5,16.7 L260.5,25.7    "
       id="path86" />
    <g
       transform="translate(260.5,444.9)"
       style="stroke:none; fill:black; font-family:Arial; font-size:14.00pt; text-anchor:middle"
       id="g88">
      <text
         id="text90"> 1e-10</text>
    </g>
    <path
       d="M299.9,422.4 L299.9,417.9 M299.9,16.7 L299.9,21.2 M339.3,422.4 L339.3,413.4 M339.3,16.7 L339.3,25.7    "
       id="path92" />
    <g
       transform="translate(339.3,444.9)"
       style="stroke:none; fill:black; font-family:Arial; font-size:14.00pt; text-anchor:middle"
       id="g94">
      <text
         id="text96"> 1e-08</text>
    </g>
    <path
       d="M378.7,422.4 L378.7,417.9 M378.7,16.7 L378.7,21.2 M418.1,422.4 L418.1,413.4 M418.1,16.7 L418.1,25.7    "
       id="path98" />
    <g
       transform="translate(418.1,444.9)"
       style="stroke:none; fill:black; font-family:Arial; font-size:14.00pt; text-anchor:middle"
       id="g100">
      <text
         id="text102"> 1e-06</text>
    </g>
    <path
       d="M457.5,422.4 L457.5,417.9 M457.5,16.7 L457.5,21.2 M496.8,422.4 L496.8,413.4 M496.8,16.7 L496.8,25.7    "
       id="path104" />
    <g
       transform="translate(496.8,444.9)"
       style="stroke:none; fill:black; font-family:Arial; font-size:14.00pt; text-anchor:middle"
       id="g106">
      <text
         id="text108"> 0.0001</text>
    </g>
    <path
       d="M536.2,422.4 L536.2,417.9 M536.2,16.7 L536.2,21.2 M575.6,422.4 L575.6,413.4 M575.6,16.7 L575.6,25.7    "
       id="path110" />
    <g
       transform="translate(575.6,444.9)"
       style="stroke:none; fill:black; font-family:Arial; font-size:14.00pt; text-anchor:middle"
       id="g112">
      <text
         id="text114"> 0.01</text>
    </g>
    <path
       d="M615.0,422.4 L615.0,417.9 M615.0,16.7 L615.0,21.2 M63.6,16.7 L63.6,422.4 L615.0,422.4 L615.0,16.7    L63.6,16.7 Z "
       id="path116" />
    <g
       transform="translate(17.6,219.6) rotate(270)"
       style="stroke:none; fill:black; font-family:Arial; font-size:18.00pt; text-anchor:middle"
       id="g118">
      <text
         id="text120">Speed-up</text>
    </g>
    <g
       transform="translate(339.3,471.9)"
       style="stroke:none; fill:black; font-family:Arial; font-size:18.00pt; text-anchor:middle"
       id="g122">
      <text
         id="text124">Error</text>
    </g>
  </g>
  <a
     xlink:title="Plot #1"
     id="a126">
    <g
       style="fill:none; color:white; stroke:currentColor; stroke-width:3.00; stroke-linecap:butt; stroke-linejoin:miter"
       id="g128" />
    <g
       style="fill:none; color:red; stroke:currentColor; stroke-width:3.00; stroke-linecap:butt; stroke-linejoin:miter"
       id="g130">
      <g
         transform="translate(438.0,96.0)"
         style="stroke:none; fill:black; font-family:Arial; font-size:18.00pt; text-anchor:end"
         id="g132">
        <text
           id="text134"
           x="-300"
           y="-40">CPU</text>
      </g>
      <path
         d="m 146.3,51.5 42.2,0 m 407.4,327.7 -43.9,0.8 -47.1,-0.6 -31.1,0.8 -72.1,0 -36.4,4.5 -49.4,-0.2 -39.3,0.2 -31.7,0.1 -39.4,0.4 -18.8,0.5 -60.7,-0.7 -14.4,-0.4 -3.4,3.5 3.5,0.3 -17,0"
         id="path136"
         inkscape:connector-curvature="0"
         style="stroke:#0000ff"
         sodipodi:nodetypes="cccccccccccccccccc" />
      <use
         xlink:href="#gpPt6"
         transform="translate(595.9,379.2) scale(4.50)"
         color="white"
         id="use138" />
      <use
         xlink:href="#gpPt5"
         transform="translate(595.9,379.2) scale(9.00)"
         color="rgb(  0,   0, 255)"
         id="use140" />
      <use
         xlink:href="#gpPt6"
         transform="translate(552.0,380.0) scale(4.50)"
         color="white"
         id="use142" />
      <use
         xlink:href="#gpPt5"
         transform="translate(552.0,380.0) scale(9.00)"
         color="rgb(  0,   0, 255)"
         id="use144" />
      <use
         xlink:href="#gpPt6"
         transform="translate(504.9,379.4) scale(4.50)"
         color="white"
         id="use146" />
      <use
         xlink:href="#gpPt5"
         transform="translate(504.9,379.4) scale(9.00)"
         color="rgb(  0,   0, 255)"
         id="use148" />
      <use
         xlink:href="#gpPt6"
         transform="translate(473.8,380.2) scale(4.50)"
         color="white"
         id="use150" />
      <use
         xlink:href="#gpPt5"
         transform="translate(473.8,380.2) scale(9.00)"
         color="rgb(  0,   0, 255)"
         id="use152" />
      <use
         xlink:href="#gpPt6"
         transform="translate(401.7,380.2) scale(4.50)"
         color="white"
         id="use154" />
      <use
         xlink:href="#gpPt5"
         transform="translate(401.7,380.2) scale(9.00)"
         color="rgb(  0,   0, 255)"
         id="use156" />
      <use
         xlink:href="#gpPt6"
         transform="translate(365.3,384.7) scale(4.50)"
         color="white"
         id="use158" />
      <use
         xlink:href="#gpPt5"
         transform="translate(365.3,384.7) scale(9.00)"
         color="rgb(  0,   0, 255)"
         id="use160" />
      <use
         xlink:href="#gpPt6"
         transform="translate(315.9,384.5) scale(4.50)"
         color="white"
         id="use162" />
      <use
         xlink:href="#gpPt5"
         transform="translate(315.9,384.5) scale(9.00)"
         color="rgb(  0,   0, 255)"
         id="use164" />
      <use
         xlink:href="#gpPt6"
         transform="translate(276.6,384.7) scale(4.50)"
         color="white"
         id="use166" />
      <use
         xlink:href="#gpPt5"
         transform="translate(276.6,384.7) scale(9.00)"
         color="rgb(  0,   0, 255)"
         id="use168" />
      <use
         xlink:href="#gpPt6"
         transform="translate(244.9,384.8) scale(4.50)"
         color="white"
         id="use170" />
      <use
         xlink:href="#gpPt5"
         transform="translate(244.9,384.8) scale(9.00)"
         color="rgb(  0,   0, 255)"
         id="use172" />
      <use
         xlink:href="#gpPt6"
         transform="translate(205.5,385.2) scale(4.50)"
         color="white"
         id="use174" />
      <use
         xlink:href="#gpPt5"
         transform="translate(205.5,385.2) scale(9.00)"
         color="rgb(  0,   0, 255)"
         id="use176" />
      <use
         xlink:href="#gpPt6"
         transform="translate(186.7,385.7) scale(4.50)"
         color="white"
         id="use178" />
      <use
         xlink:href="#gpPt5"
         transform="translate(186.7,385.7) scale(9.00)"
         color="rgb(  0,   0, 255)"
         id="use180" />
      <use
         xlink:href="#gpPt6"
         transform="translate(126.0,385.0) scale(4.50)"
         color="white"
         id="use182" />
      <use
         xlink:href="#gpPt5"
         transform="translate(126.0,385.0) scale(9.00)"
         color="rgb(  0,   0, 255)"
         id="use184" />
      <use
         xlink:href="#gpPt6"
         transform="translate(111.6,384.6) scale(4.50)"
         color="white"
         id="use186" />
      <use
         xlink:href="#gpPt5"
         transform="translate(111.6,384.6) scale(9.00)"
         color="rgb(  0,   0, 255)"
         id="use188" />
      <use
         xlink:href="#gpPt6"
         transform="translate(108.2,388.1) scale(4.50)"
         color="white"
         id="use190" />
      <use
         xlink:href="#gpPt5"
         transform="translate(108.2,388.1) scale(9.00)"
         color="rgb(  0,   0, 255)"
         id="use192" />
      <use
         xlink:href="#gpPt6"
         transform="translate(111.7,388.4) scale(4.50)"
         color="white"
         id="use194" />
      <use
         xlink:href="#gpPt5"
         transform="translate(111.7,388.4) scale(9.00)"
         color="rgb(  0,   0, 255)"
         id="use196" />
      <use
         xlink:href="#gpPt6"
         transform="translate(94.7,388.4) scale(4.50)"
         color="white"
         id="use198" />
      <use
         xlink:href="#gpPt5"
         transform="translate(94.7,388.4) scale(9.00)"
         color="rgb(  0,   0, 255)"
         id="use200" />
      <use
         xlink:href="#gpPt6"
         transform="matrix(4.5,0,0,4.5,167.4,51.5)"
         id="use202"
         style="color:#ffffff"
         x="0"
         y="0"
         width="640"
         height="480" />
      <use
         xlink:href="#gpPt5"
         transform="matrix(9,0,0,9,167.4,51.5)"
         id="use204"
         style="color:#0000ff"
         x="0"
         y="0"
         width="640"
         height="480" />
    </g>
  </a>
  <a
     xlink:title="Plot #2"
     id="a206">
    <g
       style="fill:none; color:green; stroke:currentColor; stroke-width:3.00; stroke-linecap:butt; stroke-linejoin:miter"
       id="g208">
      <g
         transform="translate(438.0,129.7)"
         style="stroke:none; fill:black; font-family:Arial; font-size:18.00pt; text-anchor:end"
         id="g210">
        <text
           id="text212"
           x="-300"
           y="-40">GPU1</text>
      </g>
      <path
         d="m 146.3,85.2 42.2,0 m 407.4,92 -43.9,-147.1 -47.1,0.4 -31.1,39.2 -72.1,61.2 -36.4,20.3 -49.4,10.4 -39.3,-28.2 -31.7,33.1 -39.4,1.5 -18.8,24.9 -59.7,14.9 -22.8,-40 -9.2,8.5 9.4,0.3 -8.3,10.7"
         id="path214"
         inkscape:connector-curvature="0"
         style="stroke:#000000"
         sodipodi:nodetypes="cccccccccccccccccc" />
      <use
         xlink:href="#gpPt6"
         transform="translate(595.9,177.2) scale(4.50)"
         color="white"
         id="use216" />
      <use
         xlink:href="#gpPt1"
         transform="translate(595.9,177.2) scale(9.00)"
         color="rgb(  0,   0,   0)"
         id="use218" />
      <use
         xlink:href="#gpPt6"
         transform="translate(552.0,30.1) scale(4.50)"
         color="white"
         id="use220" />
      <use
         xlink:href="#gpPt1"
         transform="translate(552.0,30.1) scale(9.00)"
         color="rgb(  0,   0,   0)"
         id="use222" />
      <use
         xlink:href="#gpPt6"
         transform="translate(504.9,30.5) scale(4.50)"
         color="white"
         id="use224" />
      <use
         xlink:href="#gpPt1"
         transform="translate(504.9,30.5) scale(9.00)"
         color="rgb(  0,   0,   0)"
         id="use226" />
      <use
         xlink:href="#gpPt6"
         transform="translate(473.8,69.7) scale(4.50)"
         color="white"
         id="use228" />
      <use
         xlink:href="#gpPt1"
         transform="translate(473.8,69.7) scale(9.00)"
         color="rgb(  0,   0,   0)"
         id="use230" />
      <use
         xlink:href="#gpPt6"
         transform="translate(401.7,130.9) scale(4.50)"
         color="white"
         id="use232" />
      <use
         xlink:href="#gpPt1"
         transform="translate(401.7,130.9) scale(9.00)"
         color="rgb(  0,   0,   0)"
         id="use234" />
      <use
         xlink:href="#gpPt6"
         transform="translate(365.3,151.2) scale(4.50)"
         color="white"
         id="use236" />
      <use
         xlink:href="#gpPt1"
         transform="translate(365.3,151.2) scale(9.00)"
         color="rgb(  0,   0,   0)"
         id="use238" />
      <use
         xlink:href="#gpPt6"
         transform="translate(315.9,161.6) scale(4.50)"
         color="white"
         id="use240" />
      <use
         xlink:href="#gpPt1"
         transform="translate(315.9,161.6) scale(9.00)"
         color="rgb(  0,   0,   0)"
         id="use242" />
      <use
         xlink:href="#gpPt6"
         transform="translate(276.6,133.4) scale(4.50)"
         color="white"
         id="use244" />
      <use
         xlink:href="#gpPt1"
         transform="translate(276.6,133.4) scale(9.00)"
         color="rgb(  0,   0,   0)"
         id="use246" />
      <use
         xlink:href="#gpPt6"
         transform="translate(244.9,166.5) scale(4.50)"
         color="white"
         id="use248" />
      <use
         xlink:href="#gpPt1"
         transform="translate(244.9,166.5) scale(9.00)"
         color="rgb(  0,   0,   0)"
         id="use250" />
      <use
         xlink:href="#gpPt6"
         transform="translate(205.5,168.0) scale(4.50)"
         color="white"
         id="use252" />
      <use
         xlink:href="#gpPt1"
         transform="translate(205.5,168.0) scale(9.00)"
         color="rgb(  0,   0,   0)"
         id="use254" />
      <use
         xlink:href="#gpPt6"
         transform="translate(186.7,192.9) scale(4.50)"
         color="white"
         id="use256" />
      <use
         xlink:href="#gpPt1"
         transform="translate(186.7,192.9) scale(9.00)"
         color="rgb(  0,   0,   0)"
         id="use258" />
      <use
         xlink:href="#gpPt6"
         transform="translate(127.0,207.8) scale(4.50)"
         color="white"
         id="use260" />
      <use
         xlink:href="#gpPt1"
         transform="translate(127.0,207.8) scale(9.00)"
         color="rgb(  0,   0,   0)"
         id="use262" />
      <use
         xlink:href="#gpPt6"
         transform="translate(104.2,167.8) scale(4.50)"
         color="white"
         id="use264" />
      <use
         xlink:href="#gpPt1"
         transform="translate(104.2,167.8) scale(9.00)"
         color="rgb(  0,   0,   0)"
         id="use266" />
      <use
         xlink:href="#gpPt6"
         transform="translate(95.0,176.3) scale(4.50)"
         color="white"
         id="use268" />
      <use
         xlink:href="#gpPt1"
         transform="translate(95.0,176.3) scale(9.00)"
         color="rgb(  0,   0,   0)"
         id="use270" />
      <use
         xlink:href="#gpPt6"
         transform="translate(104.4,176.6) scale(4.50)"
         color="white"
         id="use272" />
      <use
         xlink:href="#gpPt1"
         transform="translate(104.4,176.6) scale(9.00)"
         color="rgb(  0,   0,   0)"
         id="use274" />
      <use
         xlink:href="#gpPt6"
         transform="translate(96.1,187.3) scale(4.50)"
         color="white"
         id="use276" />
      <use
         xlink:href="#gpPt1"
         transform="translate(96.1,187.3) scale(9.00)"
         color="rgb(  0,   0,   0)"
         id="use278" />
      <use
         xlink:href="#gpPt6"
         transform="matrix(4.5,0,0,4.5,167.4,85.2)"
         id="use280"
         style="color:#ffffff"
         x="0"
         y="0"
         width="640"
         height="480" />
      <use
         xlink:href="#gpPt1"
         transform="matrix(9,0,0,9,167.4,85.2)"
         id="use282"
         style="color:#000000"
         x="0"
         y="0"
         width="640"
         height="480" />
    </g>
  </a>
  <a
     xlink:title="Plot #3"
     id="a284">
    <g
       style="fill:none; color:blue; stroke:currentColor; stroke-width:3.00; stroke-linecap:butt; stroke-linejoin:miter"
       id="g286">
      <g
         transform="translate(438.0,163.4)"
         style="stroke:none; fill:black; font-family:Arial; font-size:18.00pt; text-anchor:end"
         id="g288">
        <text
           id="text290"
           y="60"
           x="120">GPU2</text>
      </g>
      <path
         d="m 566.3,218.9 42.2,0 M 595.9,94.7 552,96.1 504.9,97 l -31.1,48.9 -72.1,44.8 -36.4,18.6 -49.4,14.4 -39.3,16.2 -31.7,10.5 -39.4,13.2 -18.7,11.8 -60.8,6.5 -17.2,8 -5.7,2.4 6.1,6 -12.5,2.9"
         id="path292"
         inkscape:connector-curvature="0"
         style="stroke:#00ff00"
         sodipodi:nodetypes="cccccccccccccccccc" />
      <use
         xlink:href="#gpPt6"
         transform="translate(595.9,94.7) scale(4.50)"
         color="white"
         id="use294" />
      <use
         xlink:href="#gpPt7"
         transform="translate(595.9,94.7) scale(9.00)"
         color="rgb(  0, 255,   0)"
         id="use296" />
      <use
         xlink:href="#gpPt6"
         transform="translate(552.0,96.1) scale(4.50)"
         color="white"
         id="use298" />
      <use
         xlink:href="#gpPt7"
         transform="translate(552.0,96.1) scale(9.00)"
         color="rgb(  0, 255,   0)"
         id="use300" />
      <use
         xlink:href="#gpPt6"
         transform="translate(504.9,97.0) scale(4.50)"
         color="white"
         id="use302" />
      <use
         xlink:href="#gpPt7"
         transform="translate(504.9,97.0) scale(9.00)"
         color="rgb(  0, 255,   0)"
         id="use304" />
      <use
         xlink:href="#gpPt6"
         transform="translate(473.8,145.9) scale(4.50)"
         color="white"
         id="use306" />
      <use
         xlink:href="#gpPt7"
         transform="translate(473.8,145.9) scale(9.00)"
         color="rgb(  0, 255,   0)"
         id="use308" />
      <use
         xlink:href="#gpPt6"
         transform="translate(401.7,190.7) scale(4.50)"
         color="white"
         id="use310" />
      <use
         xlink:href="#gpPt7"
         transform="translate(401.7,190.7) scale(9.00)"
         color="rgb(  0, 255,   0)"
         id="use312" />
      <use
         xlink:href="#gpPt6"
         transform="translate(365.3,209.3) scale(4.50)"
         color="white"
         id="use314" />
      <use
         xlink:href="#gpPt7"
         transform="translate(365.3,209.3) scale(9.00)"
         color="rgb(  0, 255,   0)"
         id="use316" />
      <use
         xlink:href="#gpPt6"
         transform="translate(315.9,223.7) scale(4.50)"
         color="white"
         id="use318" />
      <use
         xlink:href="#gpPt7"
         transform="translate(315.9,223.7) scale(9.00)"
         color="rgb(  0, 255,   0)"
         id="use320" />
      <use
         xlink:href="#gpPt6"
         transform="translate(276.6,239.9) scale(4.50)"
         color="white"
         id="use322" />
      <use
         xlink:href="#gpPt7"
         transform="translate(276.6,239.9) scale(9.00)"
         color="rgb(  0, 255,   0)"
         id="use324" />
      <use
         xlink:href="#gpPt6"
         transform="translate(244.9,250.4) scale(4.50)"
         color="white"
         id="use326" />
      <use
         xlink:href="#gpPt7"
         transform="translate(244.9,250.4) scale(9.00)"
         color="rgb(  0, 255,   0)"
         id="use328" />
      <use
         xlink:href="#gpPt6"
         transform="translate(205.5,263.6) scale(4.50)"
         color="white"
         id="use330" />
      <use
         xlink:href="#gpPt7"
         transform="translate(205.5,263.6) scale(9.00)"
         color="rgb(  0, 255,   0)"
         id="use332" />
      <use
         xlink:href="#gpPt6"
         transform="translate(186.8,275.4) scale(4.50)"
         color="white"
         id="use334" />
      <use
         xlink:href="#gpPt7"
         transform="translate(186.8,275.4) scale(9.00)"
         color="rgb(  0, 255,   0)"
         id="use336" />
      <use
         xlink:href="#gpPt6"
         transform="translate(126.0,281.9) scale(4.50)"
         color="white"
         id="use338" />
      <use
         xlink:href="#gpPt7"
         transform="translate(126.0,281.9) scale(9.00)"
         color="rgb(  0, 255,   0)"
         id="use340" />
      <use
         xlink:href="#gpPt6"
         transform="translate(108.8,289.9) scale(4.50)"
         color="white"
         id="use342" />
      <use
         xlink:href="#gpPt7"
         transform="translate(108.8,289.9) scale(9.00)"
         color="rgb(  0, 255,   0)"
         id="use344" />
      <use
         xlink:href="#gpPt6"
         transform="translate(103.1,292.3) scale(4.50)"
         color="white"
         id="use346" />
      <use
         xlink:href="#gpPt7"
         transform="translate(103.1,292.3) scale(9.00)"
         color="rgb(  0, 255,   0)"
         id="use348" />
      <use
         xlink:href="#gpPt6"
         transform="translate(109.2,298.3) scale(4.50)"
         color="white"
         id="use350" />
      <use
         xlink:href="#gpPt7"
         transform="translate(109.2,298.3) scale(9.00)"
         color="rgb(  0, 255,   0)"
         id="use352" />
      <use
         xlink:href="#gpPt6"
         transform="translate(96.7,301.2) scale(4.50)"
         color="white"
         id="use354" />
      <use
         xlink:href="#gpPt7"
         transform="translate(96.7,301.2) scale(9.00)"
         color="rgb(  0, 255,   0)"
         id="use356" />
      <use
         xlink:href="#gpPt6"
         transform="matrix(4.5,0,0,4.5,587.4,218.9)"
         id="use358"
         style="color:#ffffff"
         x="0"
         y="0"
         width="640"
         height="480" />
      <use
         xlink:href="#gpPt7"
         transform="matrix(9,0,0,9,587.4,218.9)"
         id="use360"
         style="color:#00ff00"
         x="0"
         y="0"
         width="640"
         height="480" />
    </g>
  </a>
  <a
     xlink:title="Plot #4"
     id="a362">
    <g
       style="fill:none; color:cyan; stroke:currentColor; stroke-width:3.00; stroke-linecap:butt; stroke-linejoin:miter"
       id="g364">
      <g
         transform="translate(438.0,197.1)"
         style="stroke:none; fill:black; font-family:Arial; font-size:18.00pt; text-anchor:end"
         id="g366">
        <text
           id="text368"
           y="60"
           x="120">GPU2 (ECC mode OFF)</text>
      </g>
      <path
         d="m 566.3,252.6 42.2,0 m -12.6,-180 -43.9,2.5 -47.1,-2.7 -31.1,36.8 -72.1,51.6 -36.4,19.8 -49.4,15 -39.3,11.1 -31.7,13.1 -39.4,8.2 -18.7,20.6 -60.8,4 -17.2,5.4 -5.7,6.4 6.1,3 -12.5,4.4"
         id="path370"
         inkscape:connector-curvature="0"
         style="stroke:#ff00ff"
         sodipodi:nodetypes="cccccccccccccccccc" />
      <use
         xlink:href="#gpPt6"
         transform="translate(595.9,72.6) scale(4.50)"
         color="white"
         id="use372" />
      <use
         xlink:href="#gpPt9"
         transform="translate(595.9,72.6) scale(9.00)"
         color="rgb(255,   0, 255)"
         id="use374" />
      <use
         xlink:href="#gpPt6"
         transform="translate(552.0,75.1) scale(4.50)"
         color="white"
         id="use376" />
      <use
         xlink:href="#gpPt9"
         transform="translate(552.0,75.1) scale(9.00)"
         color="rgb(255,   0, 255)"
         id="use378" />
      <use
         xlink:href="#gpPt6"
         transform="translate(504.9,72.4) scale(4.50)"
         color="white"
         id="use380" />
      <use
         xlink:href="#gpPt9"
         transform="translate(504.9,72.4) scale(9.00)"
         color="rgb(255,   0, 255)"
         id="use382" />
      <use
         xlink:href="#gpPt6"
         transform="translate(473.8,109.2) scale(4.50)"
         color="white"
         id="use384" />
      <use
         xlink:href="#gpPt9"
         transform="translate(473.8,109.2) scale(9.00)"
         color="rgb(255,   0, 255)"
         id="use386" />
      <use
         xlink:href="#gpPt6"
         transform="translate(401.7,160.8) scale(4.50)"
         color="white"
         id="use388" />
      <use
         xlink:href="#gpPt9"
         transform="translate(401.7,160.8) scale(9.00)"
         color="rgb(255,   0, 255)"
         id="use390" />
      <use
         xlink:href="#gpPt6"
         transform="translate(365.3,180.6) scale(4.50)"
         color="white"
         id="use392" />
      <use
         xlink:href="#gpPt9"
         transform="translate(365.3,180.6) scale(9.00)"
         color="rgb(255,   0, 255)"
         id="use394" />
      <use
         xlink:href="#gpPt6"
         transform="translate(315.9,195.6) scale(4.50)"
         color="white"
         id="use396" />
      <use
         xlink:href="#gpPt9"
         transform="translate(315.9,195.6) scale(9.00)"
         color="rgb(255,   0, 255)"
         id="use398" />
      <use
         xlink:href="#gpPt6"
         transform="translate(276.6,206.7) scale(4.50)"
         color="white"
         id="use400" />
      <use
         xlink:href="#gpPt9"
         transform="translate(276.6,206.7) scale(9.00)"
         color="rgb(255,   0, 255)"
         id="use402" />
      <use
         xlink:href="#gpPt6"
         transform="translate(244.9,219.8) scale(4.50)"
         color="white"
         id="use404" />
      <use
         xlink:href="#gpPt9"
         transform="translate(244.9,219.8) scale(9.00)"
         color="rgb(255,   0, 255)"
         id="use406" />
      <use
         xlink:href="#gpPt6"
         transform="translate(205.5,228.0) scale(4.50)"
         color="white"
         id="use408" />
      <use
         xlink:href="#gpPt9"
         transform="translate(205.5,228.0) scale(9.00)"
         color="rgb(255,   0, 255)"
         id="use410" />
      <use
         xlink:href="#gpPt6"
         transform="translate(186.8,248.6) scale(4.50)"
         color="white"
         id="use412" />
      <use
         xlink:href="#gpPt9"
         transform="translate(186.8,248.6) scale(9.00)"
         color="rgb(255,   0, 255)"
         id="use414" />
      <use
         xlink:href="#gpPt6"
         transform="translate(126.0,252.6) scale(4.50)"
         color="white"
         id="use416" />
      <use
         xlink:href="#gpPt9"
         transform="translate(126.0,252.6) scale(9.00)"
         color="rgb(255,   0, 255)"
         id="use418" />
      <use
         xlink:href="#gpPt6"
         transform="translate(108.8,258.0) scale(4.50)"
         color="white"
         id="use420" />
      <use
         xlink:href="#gpPt9"
         transform="translate(108.8,258.0) scale(9.00)"
         color="rgb(255,   0, 255)"
         id="use422" />
      <use
         xlink:href="#gpPt6"
         transform="translate(103.1,264.4) scale(4.50)"
         color="white"
         id="use424" />
      <use
         xlink:href="#gpPt9"
         transform="translate(103.1,264.4) scale(9.00)"
         color="rgb(255,   0, 255)"
         id="use426" />
      <use
         xlink:href="#gpPt6"
         transform="translate(109.2,267.4) scale(4.50)"
         color="white"
         id="use428" />
      <use
         xlink:href="#gpPt9"
         transform="translate(109.2,267.4) scale(9.00)"
         color="rgb(255,   0, 255)"
         id="use430" />
      <use
         xlink:href="#gpPt6"
         transform="translate(96.7,271.8) scale(4.50)"
         color="white"
         id="use432" />
      <use
         xlink:href="#gpPt9"
         transform="translate(96.7,271.8) scale(9.00)"
         color="rgb(255,   0, 255)"
         id="use434" />
      <use
         xlink:href="#gpPt6"
         transform="matrix(4.5,0,0,4.5,587.4,252.6)"
         id="use436"
         style="color:#ffffff"
         x="0"
         y="0"
         width="640"
         height="480" />
      <use
         xlink:href="#gpPt9"
         transform="matrix(9,0,0,9,587.4,252.6)"
         id="use438"
         style="color:#ff00ff"
         x="0"
         y="0"
         width="640"
         height="480" />
    </g>
  </a>
  <g
     style="fill:none; color:white; stroke:rgb(  0, 255, 255); stroke-width:1.00; stroke-linecap:butt; stroke-linejoin:miter"
     id="g518" />
  <g
     style="fill:none; color:black; stroke:currentColor; stroke-width:1.00; stroke-linecap:butt; stroke-linejoin:miter"
     id="g520">
    <path
       d="M63.6,16.7 L63.6,422.4 L615.0,422.4 L615.0,16.7 L63.6,16.7 Z "
       id="path522" />
  </g>
</svg>
